<svg xmlns="http://www.w3.org/2000/svg" id="fe80fb2b-bcaf-407e-919b-306adc32f78b" data-name="Layer 1" width="1032" height="741.75278" viewBox="0 0 1032 741.75278"><title>profile</title><line y1="741.25278" x2="166" y2="741.25278" fill="none" stroke="#3f3d56" stroke-miterlimit="10"/><rect x="243" y="127.75278" width="737" height="499" rx="19.39764" fill="#f2f2f2"/><rect x="220.5" y="96.25278" width="737" height="499" rx="19.39764" fill="none" stroke="#3f3d56" stroke-miterlimit="10"/><line x1="220.5" y1="144.09298" x2="957.5" y2="144.09298" fill="none" stroke="#3f3d56" stroke-miterlimit="10"/><rect x="661" y="256.25278" width="201" height="31" rx="7.09252" fill="#989898" opacity="0.3"/><rect x="622.5" y="342.25278" width="278" height="25" rx="7.09252" fill="#989898" opacity="0.3"/><rect x="622.5" y="410.25278" width="278" height="25" rx="7.09252" fill="#989898" opacity="0.3"/><rect x="622.5" y="478.25278" width="278" height="25" rx="7.09252" fill="#989898" opacity="0.3"/><rect x="671" y="246.25278" width="201" height="31" rx="7.09252" fill="none" stroke="#3f3d56" stroke-miterlimit="10"/><rect x="632.5" y="332.25278" width="278" height="25" rx="7.09252" fill="none" stroke="#3f3d56" stroke-miterlimit="10"/><rect x="632.5" y="400.25278" width="278" height="25" rx="7.09252" fill="none" stroke="#3f3d56" stroke-miterlimit="10"/><rect x="632.5" y="468.25278" width="278" height="25" rx="7.09252" fill="none" stroke="#3f3d56" stroke-miterlimit="10"/><circle cx="276.5" cy="126.25278" r="15" fill="#989898" opacity="0.3"/><circle cx="318.5" cy="126.25278" r="15" fill="#989898" opacity="0.3"/><circle cx="360.5" cy="126.25278" r="15" fill="#989898" opacity="0.3"/><circle cx="282.5" cy="120.25278" r="15" fill="none" stroke="#3f3d56" stroke-miterlimit="10"/><circle cx="324.5" cy="120.25278" r="15" fill="none" stroke="#3f3d56" stroke-miterlimit="10"/><circle cx="366.5" cy="120.25278" r="15" fill="none" stroke="#3f3d56" stroke-miterlimit="10"/><path d="M537.854,653.37916c-2.51135-11.56848-3.17724-27.36932-2.33252-38.36047,0,0-12.69836-55.78644-22.68994-60.99133l-.00305.003c-.153.19678-5.00195,6.55383-5.61706,26.22443-.62452,19.98284-7.69971,33.09655-7.69971,33.09655s2.28955,24.90766.98047,40.02777Z" transform="translate(-84.5 -79.12639)" fill="#989898"/><path d="M630.22827,298.37916H399.77173A23.77169,23.77169,0,0,0,376,322.15083V629.6075a23.77168,23.77168,0,0,0,23.77173,23.77166h80.855c-2.7002-11.19934-6.057-28.69067-2.65735-40.85241l-.00159-.008.0022.00525c.15869-.56757.32727-1.12738.51611-1.67047a63.49747,63.49747,0,0,0,2.29175-24.35407,50.6095,50.6095,0,0,0,0-21.23175c-2.4978-11.65564-4.24634-23.10522-4.24634-23.10522s-1.377-15.40234-.1748-24.84424c.02661-.2074.05762-.404.08667-.60541-.42432-.09655-.66235-.15228-.66235-.15228s3.53881-16.02789,4.78759-26.22748c.29493-2.40783.683-5.46032,1.10315-8.71478a20.93993,20.93993,0,0,1-3.3927-.86035c-11.24035-3.9549-14.779-39.75751-14.779-39.75751V429.656s-3.74683-17.38092,9.36694-25.08258c12.62793-7.41644,17.66968-9.44617,18.02613-9.58643.09619-.06878.19018-.13128.28833-.20727a11.06127,11.06127,0,0,0,3.28967-4.23371q.02619-.42873.01233-.85211c-.21326-4.06665-3.04419-7.76507-5.73047-10.99225q-3.43653-4.12857-6.87341-8.25726a8.07194,8.07194,0,0,1-1.77027-2.86487,6.604,6.604,0,0,1-.187-1.80389q-.00275-.33691.004-.673.056-3.07836.16724-6.15545c.06445-1.79224.51562-4.05353,2.27075-4.42182.91284-.19159,2.12109.14246,2.60364-.65576a1.56534,1.56534,0,0,0,.11682-1.06054c-.00586.02661-.00733.05444-.015.0805-.00586-.03339-.01159-.06695-.01782-.09985a22.43656,22.43656,0,0,1-.65051-4.38636,5.84207,5.84207,0,0,1,.282-1.96984c1.01672-2.97516,4.51782-4.196,7.61133-4.75727,3.09375-.56134,6.56653-1.04425,8.5083-3.51709a26.9506,26.9506,0,0,1,1.68884-2.37384,6.62979,6.62979,0,0,1,3.16589-1.59674,17.49792,17.49792,0,0,1,11.50623,1.02118c1.49646.68286,2.99963,1.60248,4.64124,1.49841,1.70507-.108,3.16162-1.3081,4.84509-1.60009,2.71911-.47156,5.31872,1.56567,6.65869,3.97827a9.85108,9.85108,0,0,1,1.23279,5.02313,6.912,6.912,0,0,1-1.76416,4.74109c-1.17017,1.24145-2.91626,2.09418-3.4021,3.72955-.198.66565-.152,1.38257-.32691,2.05457-.02185.084-.05737.16241-.08606.24365.03211.04169.06714.08112.09888.123a21.231,21.231,0,0,1-10.33215,33.01928c-.00794.21058-.01624.42133-.01514.63306a9.173,9.173,0,0,0,2.8396,7.0647l18.54724,7.606s11.16565-1.3534,15.19495,15.30957a28.82628,28.82628,0,0,1,.68982,8.45746c-.14636,2.51251.19507,6.93573,3.05725,12.66,4.57934,9.15881,3.53857,30.18237-5.82837,32.26392-8.87231,1.97161-12.32361,1.14331-12.66382,1.05023l-.02014.3681c.14612,3.94489,1.55029,37.969,6.64758,42.086,1.40955,1.13849,1.14026,1.90753-.01635,2.42578l.0028.00336s.0094.21856.03113.612c.15308,2.48846.93994,11.96472,4.35254,17.357,3.956,6.24457,3.54077,42.25739,3.54077,42.25739l2.70386,21.23181s-1.66419,13.11371,0,15.4024c.94556,1.29785,2.09057,21.40351,2.905,38.56964h69.53027A23.77168,23.77168,0,0,0,654,629.6075V322.15083A23.77169,23.77169,0,0,0,630.22827,298.37916Z" transform="translate(-84.5 -79.12639)" fill="#989898"/><rect x="267.5" y="192.25278" width="278" height="355" rx="23.77165" fill="none" stroke="#3f3d56" stroke-miterlimit="10"/><path d="M1019.38065,86.58377a22.982,22.982,0,0,0-19.80994,13.851c-4.9535,11.97382,1.42449,26.03885,10.999,34.77028s21.87358,13.72225,33.04831,20.28234c15.00952,8.81128,28.4968,21.04282,36.00691,36.74386s8.30888,35.15009-.51891,50.14991c-8.1937,13.9224-23.09255,22.2549-37.30219,29.9397" transform="translate(-84.5 -79.12639)" fill="none" stroke="#3f3d56" stroke-miterlimit="10"/><ellipse cx="947.5" cy="8.5" rx="17.5" ry="8.5" fill="#989898"/><ellipse cx="961.5" cy="64.5" rx="17.5" ry="8.5" fill="#989898"/><ellipse cx="929.5" cy="73.5" rx="17.5" ry="8.5" fill="#989898"/><ellipse cx="979.5" cy="120.5" rx="17.5" ry="8.5" fill="#989898"/><ellipse cx="1014.5" cy="120.5" rx="17.5" ry="8.5" fill="#989898"/></svg>